<svg xmlns="http://www.w3.org/2000/svg" viewBox="0 0 280 48" fill="none" role="img" aria-label="Fenix Life">
  <g transform="translate(0,2)">
    <rect width="44" height="44" rx="10" fill="#0B132B"/>
    <path d="M22 7c1.7 4 2.7 8 2.7 12 0 2.7-.7 5-2 7 3.3-.7 6-2.7 8-5.3-.7 5.3-3.3 9.3-8 12 2.7.7 5.3.7 8-.7-4 4-9.3 6-14.7 5.3 2-2 3.3-4.7 4-7.3-3.3 2-7.3 2.7-11.3 2 3.3-2.7 6-6 7.3-10-2.7 1.3-6 1.3-9.3.7 4-3.3 8-6.7 12-10.7.7 2.7 1.3 5.3.7 8 .7-2.7 1.3-5.3 2.7-7.3z" fill="#2EC4B6"/>
    <circle cx="22" cy="19" r="2.4" fill="#F4B400"/>
  </g>
  <text x="56" y="32" font-family="Fraunces, Georgia, serif" font-size="26" font-weight="700" fill="#0B132B" letter-spacing="0.04em">FENIX LIFE</text>
</svg>
